<?xml version="1.0" standalone="no"?>
<!DOCTYPE svg PUBLIC "-//W3C//DTD SVG 20010904//EN"
 "http://www.w3.org/TR/2001/REC-SVG-20010904/DTD/svg10.dtd">
<svg version="1.0" xmlns="http://www.w3.org/2000/svg"
 width="1628.000000pt" height="605.000000pt" viewBox="0 0 1628.000000 605.000000"
 preserveAspectRatio="xMidYMid meet">

<g transform="translate(0.000000,605.000000) scale(0.100000,-0.100000)"
fill="#000000" stroke="none">
<path d="M5865 4918 c-3 -7 -4 -841 -3 -1853 l3 -1840 265 0 265 0 0 1850 0
1850 -263 3 c-205 2 -264 0 -267 -10z"/>
<path d="M7010 4922 c0 -5 33 -94 74 -198 41 -104 138 -355 216 -559 78 -203
152 -397 165 -430 13 -33 98 -256 190 -495 92 -239 217 -563 277 -720 61 -157
127 -330 148 -385 21 -55 66 -172 100 -260 33 -88 81 -212 105 -275 115 -303
136 -354 146 -366 16 -19 282 -20 297 -1 5 6 37 84 70 172 34 88 93 243 132
345 40 102 85 221 102 265 16 44 53 141 82 215 88 224 161 413 257 665 89 234
122 322 234 610 30 77 93 241 140 365 47 124 106 277 130 340 24 63 76 198
116 300 39 102 90 235 115 297 24 61 44 114 44 117 0 3 -128 6 -284 6 l-285 0
-20 -54 c-11 -30 -106 -291 -210 -580 -105 -288 -197 -542 -205 -563 -40 -103
-511 -1406 -527 -1460 -33 -107 -43 -98 -106 87 -59 173 -156 445 -172 480 -5
14 -54 144 -106 290 -131 361 -207 569 -245 670 -17 47 -55 153 -85 235 -29
83 -78 215 -107 295 -78 207 -133 358 -177 485 l-37 110 -287 3 c-158 1 -287
-2 -287 -6z"/>
<path d="M10620 3075 l0 -1855 263 2 262 3 0 1388 c0 1324 1 1387 18 1387 10
0 20 -8 23 -17 9 -29 119 -247 542 -1073 129 -252 272 -532 402 -785 48 -93
169 -330 269 -526 100 -197 188 -362 195 -368 9 -8 61 -11 155 -9 l142 3 145
285 c80 157 247 483 371 725 617 1203 846 1652 868 1703 18 43 41 69 51 59 3
-3 6 -628 7 -1388 l2 -1384 265 0 265 0 0 1850 0 1850 -329 0 -328 0 -70 -135
c-38 -74 -159 -313 -270 -530 -111 -217 -242 -476 -293 -575 -51 -99 -159
-310 -240 -470 -81 -159 -230 -450 -330 -645 -100 -195 -196 -386 -214 -425
-33 -70 -50 -91 -62 -77 -4 4 -89 169 -189 367 -100 198 -219 432 -265 520
-46 88 -192 374 -325 635 -133 261 -284 556 -335 655 -51 99 -150 294 -221
433 l-128 252 -323 0 -323 0 0 -1855z"/>
<path d="M1790 4860 c-192 -26 -336 -104 -438 -239 -23 -31 -51 -81 -63 -111
-45 -118 -49 -176 -49 -646 l0 -444 -28 -31 c-25 -27 -37 -33 -93 -38 l-64 -6
0 -280 0 -280 55 -5 c30 -3 65 -11 77 -18 52 -29 53 -37 53 -514 0 -403 2
-450 19 -523 32 -132 68 -199 147 -279 77 -76 161 -120 302 -157 60 -16 120
-22 275 -26 109 -3 202 -2 207 3 4 5 6 134 3 286 l-6 277 -168 3 c-160 3 -170
4 -191 26 l-23 23 -6 462 c-6 513 -3 487 -81 660 l-31 67 36 78 c71 152 70
149 74 637 2 316 7 447 15 463 24 47 60 56 227 57 l154 0 1 280 1 280 -175 1
c-96 1 -200 -2 -230 -6z m278 -272 l3 -158 -95 0 c-116 0 -176 -18 -230 -68
-71 -68 -69 -55 -76 -567 -6 -404 -9 -467 -24 -515 -22 -67 -50 -124 -82 -167
-30 -39 -30 -48 0 -87 29 -39 70 -118 87 -171 9 -29 14 -166 18 -510 6 -461 6
-471 28 -516 42 -84 113 -117 271 -126 l102 -6 0 -155 0 -155 -147 6 c-82 3
-177 13 -212 22 -128 31 -222 100 -285 208 -57 97 -59 111 -65 632 l-6 481
-25 49 c-20 38 -39 58 -79 82 -30 18 -59 34 -64 36 -11 3 -22 265 -13 303 4
15 16 26 34 30 49 12 80 33 102 69 47 75 50 112 50 579 0 479 2 502 60 615 31
62 116 148 176 179 22 11 64 27 94 36 56 16 247 35 330 32 l45 -1 3 -157z"/>
<path d="M3500 4584 l0 -286 113 7 c138 9 221 -4 257 -40 l25 -25 5 -453 c6
-421 7 -457 27 -528 12 -42 35 -102 52 -133 20 -37 27 -63 22 -74 -4 -9 -19
-42 -34 -72 -59 -123 -60 -136 -66 -630 -6 -487 -7 -491 -57 -510 -14 -6 -97
-10 -185 -10 l-159 0 0 -286 0 -286 203 5 c211 5 278 16 407 67 163 64 264
181 321 372 21 69 23 97 28 545 l6 473 27 26 c21 21 39 28 90 33 l63 6 3 260
c1 143 0 270 -3 283 -5 19 -12 22 -56 22 -55 0 -103 20 -119 49 -6 13 -10 171
-10 440 0 419 -6 530 -37 626 -40 128 -133 243 -251 309 -124 70 -267 95 -534
96 l-138 0 0 -286z m442 141 c181 -31 308 -132 360 -285 21 -62 22 -85 27
-550 6 -483 6 -485 30 -538 28 -62 77 -109 126 -118 l35 -6 0 -163 0 -162 -43
-17 c-51 -19 -86 -54 -119 -116 -23 -45 -23 -46 -28 -530 -6 -474 -6 -487 -29
-550 -46 -132 -147 -224 -290 -265 -77 -23 -201 -36 -296 -33 l-90 3 -3 144
c-1 80 2 149 7 154 5 5 51 10 103 12 103 3 190 29 226 68 12 12 29 40 39 62
16 37 18 78 18 480 1 338 4 452 14 490 18 64 62 162 95 211 14 21 26 44 26 51
0 6 -15 38 -34 70 -19 32 -47 94 -63 138 l-28 80 -5 450 c-4 405 -7 454 -23
490 -43 94 -104 126 -262 134 l-110 6 -3 145 c-3 181 -9 174 138 165 58 -4
140 -13 182 -20z"/>
<path d="M2430 4353 c-4 -87 -8 -812 -5 -823 4 -13 57 -15 422 -14 l418 2 2
398 c1 220 0 409 -3 422 l-4 22 -415 0 c-228 0 -415 -3 -415 -7z m710 -163 c3
-19 4 -151 2 -292 l-4 -258 -294 0 -294 0 0 288 c0 159 3 292 7 295 4 4 135 6
292 5 l286 -3 5 -35z"/>
<path d="M2427 3253 c-9 -8 -9 -779 -1 -810 6 -22 8 -23 218 -25 l211 -3 -2
-85 c-3 -184 -91 -302 -258 -346 -27 -8 -66 -14 -85 -14 -49 0 -78 -9 -84 -27
-3 -8 -3 -46 1 -85 l6 -71 111 6 c328 18 569 132 656 311 63 129 64 143 65
671 l0 480 -416 3 c-228 1 -418 -1 -422 -5z m709 -124 c10 -17 4 -775 -7 -832
-12 -67 -51 -151 -95 -204 -34 -41 -142 -123 -163 -123 -20 0 -22 22 -5 48 57
84 95 217 102 353 2 59 2 123 -2 144 l-7 37 -183 -7 c-101 -4 -193 -4 -204 0
-22 6 -22 8 -22 294 0 158 3 291 7 294 12 12 571 8 579 -4z"/>
</g>
</svg>
